<svg
              width="51"
              height="51"
              viewBox="0 0 51 51"
              fill="none"
              xmlns="http://www.w3.org/2000/svg"
            >
              <path
                d="M27.5591 17.0216C29.9685 17.0216 31.9217 15.2014 31.9217 12.9561C31.9217 10.7108 29.9685 8.89062 27.5591 8.89062C25.1497 8.89062 23.1964 10.7108 23.1964 12.9561C23.1964 15.2014 25.1497 17.0216 27.5591 17.0216Z"
                stroke="#111"
                stroke-width="2.39269"
              />
              <path
                d="M41.8884 31.1683C44.2978 31.1683 46.251 29.3333 46.251 27.0697C46.251 24.8061 44.2978 22.9712 41.8884 22.9712C39.479 22.9712 37.5258 24.8061 37.5258 27.0697C37.5258 29.3333 39.479 31.1683 41.8884 31.1683Z"
                stroke="#111"
                stroke-width="2.39269"
              />
              <path
                d="M27.5591 44.4555C29.9685 44.4555 31.9217 42.6353 31.9217 40.39C31.9217 38.1447 29.9685 36.3245 27.5591 36.3245C25.1497 36.3245 23.1964 38.1447 23.1964 40.39C23.1964 42.6353 25.1497 44.4555 27.5591 44.4555Z"
                stroke="#111"
                stroke-width="2.39269"
              />
              <path
                d="M12.9815 38.506C15.4105 38.506 17.3796 36.6858 17.3796 34.4405C17.3796 32.1952 15.4105 30.375 12.9815 30.375C10.5525 30.375 8.5834 32.1952 8.5834 34.4405C8.5834 36.6858 10.5525 38.506 12.9815 38.506Z"
                stroke="#111"
                stroke-width="2.39269"
              />
              <path
                d="M12.9815 22.5745C15.4105 22.5745 17.3796 20.7395 17.3796 18.476C17.3796 16.2124 15.4105 14.3774 12.9815 14.3774C10.5525 14.3774 8.5834 16.2124 8.5834 18.476C8.5834 20.7395 10.5525 22.5745 12.9815 22.5745Z"
                stroke="#111"
                stroke-width="2.39269"
              />
              <path
                d="M27.5236 28.7224C29.4825 28.7224 31.0705 27.2573 31.0705 25.4501C31.0705 23.6429 29.4825 22.1779 27.5236 22.1779C25.5647 22.1779 23.9768 23.6429 23.9768 25.4501C23.9768 27.2573 25.5647 28.7224 27.5236 28.7224Z"
                stroke="#111"
                stroke-width="2.39269"
              />
              <path
                d="M16.7412 16.4267L23.2674 13.9808"
                stroke="#111"
                stroke-width="2.39269"
              />
              <path
                d="M30.6449 15.8978L38.8026 24.2933"
                stroke="#111"
                stroke-width="2.39269"
              />
              <path
                d="M39.2282 30.375L30.7158 37.5144"
                stroke="#111"
                stroke-width="2.39269"
              />
              <path
                d="M15.3934 21.8474L24.828 37.1839"
                stroke="#111"
                stroke-width="2.39269"
              />
              <path
                d="M16.8121 36.3245L23.1965 39.0349"
                stroke="#111"
                stroke-width="2.39269"
              />
              <path
                d="M14.6131 30.6394L25.1118 16.4267"
                stroke="#111"
                stroke-width="2.39269"
              />
              <path
                d="M17.0249 20.0625L24.4024 23.8966"
                stroke="#111"
                stroke-width="2.39269"
              />
              <path
                d="M31.0705 25.8137L37.5258 26.2764"
                stroke="#111"
                stroke-width="2.39269"
              />
              <path
                d="M27.5236 28.7224V36.3245"
                stroke="#111"
                stroke-width="2.39269"
              />
            </svg>