<svg
              width="51"
              height="51"
              viewBox="0 0 51 51"
              fill="none"
              xmlns="http://www.w3.org/2000/svg"
            >
              <path
                fill-rule="evenodd"
                clip-rule="evenodd"
                d="M29.504 23.394C30.1888 23.3799 30.8543 23.1639 31.4168 22.773C31.9793 22.3822 32.4139 21.8339 32.666 21.197C32.918 20.56 32.9764 19.8629 32.8337 19.1929C32.6911 18.5229 32.3537 17.91 31.864 17.4311C31.3743 16.9521 30.754 16.6285 30.0811 16.5007C29.4081 16.373 28.7124 16.4468 28.0812 16.713C27.4501 16.9792 26.9116 17.4258 26.5333 17.9969C26.1551 18.5679 25.9539 19.238 25.955 19.923C25.967 20.8534 26.3473 21.7411 27.0125 22.3917C27.6777 23.0422 28.5736 23.4027 29.504 23.394Z"
                fill="#111"
              />
              <path
                fill-rule="evenodd"
                clip-rule="evenodd"
                d="M8.67012 28.9421L12.0125 22.3881V21.8031C12.0124 17.6804 13.6444 13.7252 16.5517 10.802C19.459 7.87888 23.4053 6.22546 27.528 6.20313C28.771 6.19397 30.01 6.34692 31.2135 6.65813C34.6003 7.48711 37.6096 9.43182 39.7567 12.1791C41.9038 14.9264 43.0639 18.3164 43.05 21.8031C43.1406 24.7285 42.3281 27.6108 40.723 30.0581C38.006 33.9581 35.8594 36.9969 37.2975 41.3031C37.4306 41.7713 37.4469 42.265 37.3449 42.741C37.2429 43.2169 37.0258 43.6606 36.7125 44.0331C36.4374 44.4063 36.0763 44.7075 35.6599 44.9112C35.2434 45.1149 34.7839 45.2151 34.3205 45.2031H21.5805C20.8672 45.2077 20.1746 44.9637 19.6218 44.5129C19.069 44.0621 18.6905 43.4328 18.5515 42.7331C18.4766 42.4794 18.4329 42.2175 18.4215 41.9531C18.3634 41.5853 18.1741 41.2509 17.8885 41.0119C17.6029 40.7729 17.2403 40.6454 16.868 40.6531H15.9515C15.2711 40.6744 14.603 40.4688 14.0523 40.0688C13.5015 39.6687 13.0995 39.0968 12.9095 38.4431C12.3446 36.4082 12.0217 34.3137 11.9475 32.2031L9.97012 31.7371C9.66378 31.6997 9.37212 31.5845 9.12293 31.4024C8.87375 31.2204 8.67534 30.9776 8.54662 30.6971C8.4207 30.4171 8.36607 30.1103 8.38762 29.804C8.40917 29.4978 8.50622 29.2017 8.67012 28.9421ZM20.183 23.9676L20.833 24.9881C20.9628 25.1722 21.1338 25.3233 21.3325 25.4294C21.5311 25.5355 21.7519 25.5936 21.977 25.5991C22.1375 25.589 22.2953 25.5539 22.445 25.4951L24.1675 24.8451C24.9023 25.4778 25.7519 25.9632 26.67 26.2751L26.982 28.1666C27.036 28.4707 27.1965 28.7456 27.4347 28.9421C27.6729 29.1386 27.9732 29.2439 28.282 29.2391H29.582C29.8908 29.2439 30.1911 29.1386 30.4293 28.9421C30.6675 28.7456 30.828 28.4707 30.882 28.1666L31.194 26.2751C32.0765 26.0163 32.894 25.5733 33.5925 24.9751L35.419 25.6251C35.5686 25.6839 35.7265 25.719 35.887 25.7291C36.117 25.726 36.3425 25.6647 36.5425 25.5511C36.7425 25.4374 36.9105 25.2751 37.031 25.0791L37.681 24.0066C37.8355 23.743 37.889 23.4323 37.8316 23.1323C37.7742 22.8322 37.6098 22.5631 37.369 22.3751L35.8545 21.1466C35.9549 20.6941 36.0072 20.2322 36.0105 19.7686C36.0052 19.331 35.9529 18.8951 35.8545 18.4686L37.3365 17.1751C37.5796 16.9889 37.7458 16.7197 37.8033 16.4188C37.8609 16.118 37.8058 15.8065 37.6485 15.5436L36.9985 14.4711C36.8829 14.2708 36.7159 14.105 36.5148 13.9907C36.3137 13.8765 36.0858 13.8179 35.8545 13.8211C35.694 13.8313 35.5361 13.8664 35.3865 13.9251L33.56 14.5751C32.853 13.9708 32.0396 13.5035 31.1615 13.1971L30.9015 11.4031C30.8478 11.1031 30.6857 10.8333 30.446 10.6451C30.2062 10.4569 29.9057 10.3635 29.6015 10.3826H28.3015C28.005 10.3629 27.7111 10.4495 27.4728 10.6271C27.2345 10.8046 27.0674 11.0614 27.0015 11.3511L26.6895 13.1906C25.8159 13.4705 25.0024 13.9114 24.291 14.4906L22.4645 13.8406C22.3148 13.7819 22.1569 13.7468 21.9965 13.7366C21.7665 13.7398 21.541 13.8011 21.341 13.9147C21.141 14.0283 20.973 14.1907 20.8525 14.3866L20.2025 15.4591C20.0457 15.7266 19.9897 16.0413 20.0446 16.3464C20.0994 16.6515 20.2614 16.927 20.5015 17.1231L22.016 18.3516C21.9127 18.8037 21.8604 19.2659 21.86 19.7296C21.8653 20.1673 21.9176 20.6031 22.016 21.0296L20.5015 22.2841C20.2533 22.4785 20.0843 22.7563 20.0257 23.066C19.9671 23.3757 20.023 23.6961 20.183 23.9676Z"
                fill="#111"
              />
            </svg>