<svg
              width="40"
              height="40"
              viewBox="0 0 40 40"
              fill="none"
              xmlns="http://www.w3.org/2000/svg"
            >
              <path
                d="M13.3333 16.6667H13.3509"
                stroke="#111"
                stroke-width="3.08333"
                stroke-linecap="round"
                stroke-linejoin="round"
              />
              <path
                d="M20 16.6667H20.0176"
                stroke="#111"
                stroke-width="3.08333"
                stroke-linecap="round"
                stroke-linejoin="round"
              />
              <path
                d="M26.6667 16.6667H26.6842"
                stroke="#111"
                stroke-width="3.08333"
                stroke-linecap="round"
                stroke-linejoin="round"
              />
              <path
                d="M35 21.6667V11.6667C35 8.52397 35 6.95262 34.0237 5.97632C33.0473 5 31.476 5 28.3333 5H11.6667C8.52397 5 6.95262 5 5.97632 5.97632C5 6.95262 5 8.52397 5 11.6667V21.6667C5 24.8093 5 26.3807 5.97632 27.357C6.95262 28.3333 8.52397 28.3333 11.6667 28.3333H12.5C12.9602 28.3333 13.3333 28.7065 13.3333 29.1667V33.3333V33.5832C13.3333 34.1728 14.0023 34.5135 14.4792 34.1667L21.826 28.8235C22.264 28.505 22.7917 28.3333 23.3333 28.3333H28.3333C31.476 28.3333 33.0473 28.3333 34.0237 27.357C35 26.3807 35 24.8093 35 21.6667Z"
                stroke="#111"
                stroke-width="3.08333"
                stroke-linejoin="round"
              />
            </svg>